# xmcd
#
# Track frame offsets:
#	150
#	15677
#	29872
#	42508
#	58589
#	73047
#	87414
#	99916
#	117041
#	131712
#	144446
#
# Disc length: 2131 seconds
#
# Revision: 1
# Processed by: cddbd v1.5.2PL0 Copyright (c) Steve Scherf et al.
# Submitted via: audiograbber 1.83.01
#
DISCID=9b08510b
DTITLE=Buddy Werner - Country Tucks and Rock 'n Roll
DYEAR=1900
DGENRE=
TTITLE0=Es geht alles....
TTITLE1=Country Treff
TTITLE2=Der alte Trucker
TTITLE3=Jeden Tag auf Tour
TTITLE4=60er Rock
TTITLE5=Truck Driver Man
TTITLE6=Hilly Billy Nashville
TTITLE7=Für uns gibt es keine Schranken
TTITLE8=Ich träum von Country Music
TTITLE9=Mühlviertler Rock
TTITLE10=Sag warum
EXTD=
EXTT0=
EXTT1=
EXTT2=
EXTT3=
EXTT4=
EXTT5=
EXTT6=
EXTT7=
EXTT8=
EXTT9=
EXTT10=
PLAYORDER=
